<svg width="35" height="35" viewBox="0 0 35 35" fill="none" xmlns="http://www.w3.org/2000/svg">
<g id="List">
<path id="Vector" d="M30.625 17.5C30.625 17.7901 30.5098 18.0683 30.3046 18.2734C30.0995 18.4785 29.8213 18.5938 29.5312 18.5938H5.46875C5.17867 18.5938 4.90047 18.4785 4.69535 18.2734C4.49023 18.0683 4.375 17.7901 4.375 17.5C4.375 17.2099 4.49023 16.9317 4.69535 16.7266C4.90047 16.5215 5.17867 16.4062 5.46875 16.4062H29.5312C29.8213 16.4062 30.0995 16.5215 30.3046 16.7266C30.5098 16.9317 30.625 17.2099 30.625 17.5ZM5.46875 9.84375H29.5312C29.8213 9.84375 30.0995 9.72852 30.3046 9.5234C30.5098 9.31828 30.625 9.04008 30.625 8.75C30.625 8.45992 30.5098 8.18172 30.3046 7.9766C30.0995 7.77148 29.8213 7.65625 29.5312 7.65625H5.46875C5.17867 7.65625 4.90047 7.77148 4.69535 7.9766C4.49023 8.18172 4.375 8.45992 4.375 8.75C4.375 9.04008 4.49023 9.31828 4.69535 9.5234C4.90047 9.72852 5.17867 9.84375 5.46875 9.84375ZM29.5312 25.1562H5.46875C5.17867 25.1562 4.90047 25.2715 4.69535 25.4766C4.49023 25.6817 4.375 25.9599 4.375 26.25C4.375 26.5401 4.49023 26.8183 4.69535 27.0234C4.90047 27.2285 5.17867 27.3438 5.46875 27.3438H29.5312C29.8213 27.3438 30.0995 27.2285 30.3046 27.0234C30.5098 26.8183 30.625 26.5401 30.625 26.25C30.625 25.9599 30.5098 25.6817 30.3046 25.4766C30.0995 25.2715 29.8213 25.1562 29.5312 25.1562Z" fill="#F2F2E6"/>
</g>
</svg>
