<svg width="69" height="42" viewBox="0 0 69 42" fill="none" xmlns="http://www.w3.org/2000/svg">
<path d="M4.24995 29.7724C3.39632 29.7724 2.688 29.5272 2.12497 29.0369C1.56195 28.5283 1.28043 27.8291 1.28043 26.9391C1.28043 26.0492 1.60735 25.2773 2.26119 24.6235C2.93319 23.9696 4.05016 23.4611 5.61211 23.0978L8.20022 22.4985V20.5097C8.20022 19.8922 7.94595 19.3655 7.43741 18.9296C6.94703 18.4756 6.384 18.2485 5.74833 18.2485C5.05816 18.2485 4.57687 18.4392 4.30443 18.8206C4.032 19.1839 3.89578 19.6743 3.89578 20.2918V21.0546L3.75957 21.1908H2.34292C2.07049 21.1908 1.87978 21.1454 1.77081 21.0546C1.68 20.9638 1.63459 20.7549 1.63459 20.428C1.63459 20.0284 1.75265 19.6198 1.98876 19.2021C2.22487 18.7843 2.58811 18.4211 3.07849 18.1123C3.58703 17.7854 4.11373 17.513 4.6586 17.295C5.22162 17.0771 5.82097 16.9681 6.45665 16.9681C7.09233 16.9681 7.70984 17.0589 8.30919 17.2405C8.9267 17.4222 9.42616 17.7309 9.80757 18.1668C10.189 18.5845 10.3797 19.1748 10.3797 19.9376V27.6747C10.5068 27.8018 10.6884 27.9108 10.9245 28.0016C11.1607 28.0924 11.4876 28.1378 11.9053 28.1378H12.9405L13.0223 28.1923V28.2741C12.8043 28.6736 12.4774 29.0278 12.0415 29.3365C11.6238 29.6271 11.1062 29.7724 10.4887 29.7724C9.92562 29.7724 9.46249 29.6271 9.09924 29.3365C8.75416 29.0278 8.50897 28.6282 8.36368 28.1378H8.20022C7.728 28.6101 7.13773 29.0005 6.42941 29.3093C5.73924 29.6181 5.01276 29.7724 4.24995 29.7724ZM3.40541 26.3943C3.40541 27.5203 4.08649 28.0834 5.44865 28.0834C5.88454 28.0834 6.31135 28.0379 6.72908 27.9471C7.16497 27.8563 7.65535 27.6929 8.20022 27.4568V23.4248C6.74724 23.6972 5.68476 23.9878 5.01276 24.2965C4.34076 24.5871 3.90487 24.905 3.70508 25.2501C3.5053 25.5951 3.40541 25.9765 3.40541 26.3943ZM16.002 29.7724V12.1733L14.3674 10.7566V10.5659L18.018 9.06756H18.1815V18.6572H18.2904C18.9806 18.076 19.6435 17.6492 20.2792 17.3768C20.933 17.1043 21.6323 16.9681 22.3769 16.9681C23.3032 16.9681 24.1205 17.2042 24.8288 17.6764C25.5371 18.1486 26.0911 18.8206 26.4907 19.6924C26.9084 20.5461 27.1172 21.5722 27.1172 22.7709C27.1172 24.2602 26.8357 25.5316 26.2727 26.585C25.7097 27.6202 24.9469 28.4103 23.9843 28.9551C23.0217 29.5 21.941 29.7724 20.7423 29.7724C19.9977 29.7724 19.2984 29.6998 18.6446 29.5545C18.0089 29.4274 17.4096 29.2639 16.8465 29.0641L16.1655 29.7724H16.002ZM20.8785 18.8479C20.4427 18.8479 19.9886 18.9205 19.5164 19.0658C19.0623 19.193 18.6174 19.3928 18.1815 19.6652V27.3478C18.69 27.7474 19.1985 28.0379 19.7071 28.2196C20.2338 28.383 20.815 28.4648 21.4507 28.4648C22.0863 28.4648 22.6675 28.3013 23.1942 27.9744C23.7209 27.6293 24.1387 27.0844 24.4474 26.3398C24.7743 25.5951 24.9378 24.6144 24.9378 23.3975C24.9378 21.8174 24.5382 20.6641 23.7391 19.9376C22.9581 19.2111 22.0046 18.8479 20.8785 18.8479ZM35.9292 29.7724C34.7305 29.7724 33.6771 29.4909 32.7689 28.9279C31.879 28.3649 31.1798 27.6021 30.6712 26.6395C30.1808 25.6769 29.9356 24.5871 29.9356 23.3703C29.9356 22.1534 30.1808 21.0637 30.6712 20.1011C31.1798 19.1385 31.879 18.3757 32.7689 17.8126C33.6771 17.2496 34.7305 16.9681 35.9292 16.9681C37.1279 16.9681 38.1722 17.2496 39.0621 17.8126C39.9702 18.3757 40.6695 19.1385 41.1599 20.1011C41.6684 21.0637 41.9227 22.1534 41.9227 23.3703C41.9227 24.5871 41.6684 25.6769 41.1599 26.6395C40.6695 27.6021 39.9702 28.3649 39.0621 28.9279C38.1722 29.4909 37.1279 29.7724 35.9292 29.7724ZM36.3106 28.601C37.0371 28.601 37.6364 28.3739 38.1086 27.9199C38.5808 27.4658 38.9259 26.8846 39.1439 26.1763C39.3618 25.4498 39.4708 24.6961 39.4708 23.9151C39.4708 22.9525 39.3346 22.0263 39.0621 21.1363C38.8079 20.2464 38.3901 19.5199 37.8089 18.9569C37.2459 18.3938 36.5103 18.1123 35.6022 18.1123C34.8576 18.1123 34.2492 18.3393 33.7769 18.7934C33.3047 19.2475 32.9506 19.8286 32.7145 20.537C32.4965 21.2453 32.3875 21.999 32.3875 22.7982C32.3875 23.7608 32.5238 24.687 32.7962 25.577C33.0686 26.4669 33.4954 27.1934 34.0766 27.7564C34.6578 28.3195 35.4025 28.601 36.3106 28.601ZM49.4156 29.7724C48.3441 29.7724 47.4632 29.5091 46.773 28.9824C46.101 28.4375 45.765 27.6384 45.765 26.585V18.521L44.0487 17.6764V17.2405H47.9445V25.3045C47.9445 26.1037 48.1897 26.7121 48.6801 27.1298C49.1886 27.5476 49.8424 27.7564 50.6416 27.7564C51.132 27.7564 51.6677 27.6747 52.2489 27.5112C52.8483 27.3478 53.3205 27.1117 53.6656 26.8029V18.521L51.7313 17.6764V17.2405H55.845V28.2741L57.7793 29.0641V29.5H53.6656V27.7837H53.5294C52.8392 28.4738 52.1672 28.9824 51.5134 29.3093C50.8777 29.6181 50.1784 29.7724 49.4156 29.7724ZM64.2236 29.7724C63.4245 29.7724 62.7343 29.5363 62.1531 29.0641C61.5719 28.5919 61.2813 27.929 61.2813 27.0754V18.521H59.0474V18.3575L61.3631 17.2405L63.2973 14.2438H63.4608V17.2405H67.0569V18.521H63.4608V26.6122C63.4608 27.0844 63.6697 27.4295 64.0874 27.6475C64.5051 27.8654 64.9955 27.9744 65.5585 27.9744C65.9036 27.9744 66.2214 27.9562 66.512 27.9199C66.8208 27.8836 67.0842 27.8382 67.3021 27.7837H67.3838V28.0561C67.2022 28.4738 66.839 28.8643 66.2941 29.2276C65.7674 29.5908 65.0772 29.7724 64.2236 29.7724Z" fill="#222222"/>
</svg>
