<svg width="88" height="42" viewBox="0 0 88 42" fill="none" xmlns="http://www.w3.org/2000/svg">
<path d="M11.3077 29.5V29.0641L13.024 28.1923V12.1733L11.3894 10.7566V10.5659L15.04 9.06756H15.2035V18.9841H15.3124C16.0026 18.2939 16.6655 17.7854 17.3012 17.4585C17.955 17.1316 18.6724 16.9681 19.4534 16.9681C20.525 16.9681 21.3968 17.2405 22.0688 17.7854C22.7589 18.3121 23.104 19.1022 23.104 20.1556V28.1923L24.8203 29.0641V29.5H18.9903V29.0641L20.9245 28.2741V21.436C20.9245 20.6369 20.6703 20.0284 20.1617 19.6107C19.6714 19.193 19.0266 18.9841 18.2275 18.9841C17.7371 18.9841 17.1922 19.0658 16.5929 19.2293C16.0117 19.3928 15.5485 19.6289 15.2035 19.9376V28.2741L17.1377 29.0641V29.5H11.3077ZM33.2121 29.7724C32.0134 29.7724 30.96 29.4909 30.0519 28.9279C29.1619 28.3649 28.4627 27.6021 27.9542 26.6395C27.4638 25.6769 27.2186 24.5871 27.2186 23.3703C27.2186 22.1534 27.4638 21.0637 27.9542 20.1011C28.4627 19.1385 29.1619 18.3757 30.0519 17.8126C30.96 17.2496 32.0134 16.9681 33.2121 16.9681C34.4108 16.9681 35.4551 17.2496 36.3451 17.8126C37.2532 18.3757 37.9524 19.1385 38.4428 20.1011C38.9513 21.0637 39.2056 22.1534 39.2056 23.3703C39.2056 24.5871 38.9513 25.6769 38.4428 26.6395C37.9524 27.6021 37.2532 28.3649 36.3451 28.9279C35.4551 29.4909 34.4108 29.7724 33.2121 29.7724ZM33.5935 28.601C34.32 28.601 34.9193 28.3739 35.3916 27.9199C35.8638 27.4658 36.2089 26.8846 36.4268 26.1763C36.6447 25.4498 36.7537 24.6961 36.7537 23.9151C36.7537 22.9525 36.6175 22.0263 36.3451 21.1363C36.0908 20.2464 35.6731 19.5199 35.0919 18.9569C34.5289 18.3938 33.7933 18.1123 32.8852 18.1123C32.1405 18.1123 31.5321 18.3393 31.0599 18.7934C30.5877 19.2475 30.2335 19.8286 29.9974 20.537C29.7794 21.2453 29.6705 21.999 29.6705 22.7982C29.6705 23.7608 29.8067 24.687 30.0791 25.577C30.3516 26.4669 30.7784 27.1934 31.3596 27.7564C31.9407 28.3195 32.6854 28.601 33.5935 28.601ZM41.8765 29.5V29.0641L43.5928 28.1923V20.0738L41.9582 18.6572V18.4665L45.3364 16.9681H45.4999L45.7451 18.9841H45.8813C46.5533 18.2939 47.198 17.7854 47.8155 17.4585C48.4512 17.1316 49.1414 16.9681 49.886 16.9681C50.7578 16.9681 51.5025 17.1679 52.12 17.5675C52.7375 17.9489 53.1371 18.5301 53.3187 19.311H53.4004C54.1632 18.5119 54.8715 17.9216 55.5254 17.5402C56.1974 17.1588 56.9329 16.9681 57.7321 16.9681C58.7492 16.9681 59.5846 17.2405 60.2385 17.7854C60.9105 18.3121 61.2465 19.1022 61.2465 20.1556V28.1923L62.9628 29.0641V29.5H57.1327V29.0641L59.067 28.1923V21.436C59.067 20.6369 58.8218 20.0284 58.3314 19.6107C57.8592 19.193 57.2508 18.9841 56.5061 18.9841C55.8886 18.9841 55.3074 19.084 54.7626 19.2838C54.2177 19.4836 53.7636 19.7832 53.4004 20.1828V28.1923L55.2802 29.0641V29.5H49.3956V29.0641L51.2209 28.1923V21.436C51.2209 20.6369 50.9758 20.0284 50.4854 19.6107C50.0132 19.193 49.4047 18.9841 48.6601 18.9841C48.206 18.9841 47.6975 19.0658 47.1345 19.2293C46.5714 19.3928 46.1174 19.6289 45.7723 19.9376V28.1923L47.5431 29.0641V29.5H41.8765ZM71.0636 29.7724C69.3019 29.7724 67.9125 29.2366 66.8954 28.1651C65.8783 27.0935 65.3698 25.6769 65.3698 23.9151C65.3698 22.553 65.6331 21.3543 66.1598 20.319C66.7047 19.2656 67.413 18.4483 68.2848 17.8671C69.1747 17.2678 70.1373 16.9681 71.1726 16.9681C72.6074 16.9681 73.7334 17.4676 74.5507 18.4665C75.3862 19.4654 75.8039 20.9002 75.8039 22.7709L75.6677 22.9071H67.522C67.5401 23.7426 67.7036 24.5326 68.0124 25.2773C68.3211 26.0038 68.8115 26.5941 69.4835 27.0481C70.1737 27.5022 71.0909 27.7292 72.2351 27.7292C73.234 27.7292 74.4054 27.3659 75.7494 26.6395H75.8312V26.9119C75.4134 27.6929 74.7869 28.3649 73.9514 28.9279C73.1341 29.4909 72.1715 29.7724 71.0636 29.7724ZM70.7367 18.1668C69.8649 18.1668 69.1475 18.4756 68.5845 19.0931C68.0396 19.6924 67.7036 20.5461 67.5765 21.6539H73.7334C73.5337 20.4189 73.1795 19.529 72.671 18.9841C72.1806 18.4392 71.5358 18.1668 70.7367 18.1668Z" fill="white"/>
</svg>
