<svg width="97" height="26" viewBox="0 0 97 26" fill="none" xmlns="http://www.w3.org/2000/svg">
<path d="M3.19546 3.67167C2.72324 3.67167 2.33276 3.51729 2.024 3.20854C1.71524 2.88162 1.56087 2.49113 1.56087 2.03708C1.56087 1.56486 1.71524 1.17438 2.024 0.865619C2.33276 0.556862 2.72324 0.402484 3.19546 0.402484C3.66768 0.402484 4.05816 0.556862 4.36692 0.865619C4.67568 1.17438 4.83006 1.56486 4.83006 2.03708C4.83006 2.49113 4.67568 2.88162 4.36692 3.20854C4.05816 3.51729 3.66768 3.67167 3.19546 3.67167ZM0.471135 19.5V19.0641L2.18746 18.1923V10.0738L0.552865 8.65719V8.46648L4.20346 6.96811H4.36692V18.1923L6.08324 19.0641V19.5H0.471135ZM8.84779 19.5V19.0641L10.5641 18.1923V10.0738L8.92952 8.65719V8.46648L12.3077 6.96811H12.4711L12.7163 8.98411H12.8526C13.5427 8.29394 14.2056 7.7854 14.8413 7.45848C15.4951 7.13157 16.2126 6.96811 16.9935 6.96811C18.0651 6.96811 18.9369 7.24054 19.6089 7.7854C20.299 8.31211 20.6441 9.10216 20.6441 10.1556V18.1923L22.3604 19.0641V19.5H16.5304V19.0641L18.4647 18.1923V11.436C18.4647 10.6369 18.2104 10.0284 17.7019 9.6107C17.2115 9.19297 16.5667 8.98411 15.7676 8.98411C15.2772 8.98411 14.7323 9.06584 14.133 9.2293C13.5518 9.39276 13.0887 9.62886 12.7436 9.93762V18.1923L14.6779 19.0641V19.5H8.84779ZM31.7057 25.7659V25.3301L33.64 24.5672V18.1378H33.4765C32.2234 19.2276 30.8794 19.7724 29.4445 19.7724C28.5364 19.7724 27.7191 19.5454 26.9926 19.0914C26.2843 18.6373 25.7213 18.0016 25.3036 17.1843C24.904 16.3489 24.7042 15.359 24.7042 14.2148C24.7042 12.671 25.0039 11.3633 25.6032 10.2918C26.2026 9.20205 27.0017 8.37567 28.0006 7.81265C28.9996 7.24962 30.0893 6.96811 31.2698 6.96811C31.8874 6.96811 32.4413 7.02259 32.9317 7.13157C33.4221 7.22238 33.9306 7.35859 34.4573 7.54021L35.656 6.96811H35.8195V24.4855L37.5358 25.3301V25.7659H31.7057ZM26.8837 13.5882C26.8837 15.0957 27.2832 16.1945 28.0824 16.8846C28.8815 17.5566 29.835 17.8926 30.9429 17.8926C31.3425 17.8926 31.7784 17.8291 32.2506 17.7019C32.741 17.5566 33.2041 17.3478 33.64 17.0754V10.7549C33.64 10.3009 33.6309 9.97394 33.6128 9.77416C33.6128 9.57438 33.5855 9.43816 33.531 9.36551C33.4947 9.29286 33.4221 9.21113 33.3131 9.12032C32.9317 8.7934 32.5139 8.57546 32.0599 8.46648C31.6058 8.35751 31.1336 8.30303 30.6432 8.30303C29.9531 8.30303 29.3265 8.48465 28.7635 8.84789C28.2004 9.19297 27.7464 9.756 27.4013 10.537C27.0562 11.2998 26.8837 12.3169 26.8837 13.5882ZM44.7176 19.7724C43.646 19.7724 42.7651 19.5091 42.075 18.9824C41.403 18.4375 41.067 17.6384 41.067 16.585V8.52097L39.3507 7.67643V7.24054H43.2464V15.3045C43.2464 16.1037 43.4916 16.7121 43.982 17.1298C44.4905 17.5476 45.1444 17.7564 45.9435 17.7564C46.4339 17.7564 46.9697 17.6747 47.5509 17.5112C48.1502 17.3478 48.6224 17.1117 48.9675 16.8029V8.52097L47.0332 7.67643V7.24054H51.147V18.2741L53.0812 19.0641V19.5H48.9675V17.7837H48.8313C48.1411 18.4738 47.4691 18.9824 46.8153 19.3093C46.1796 19.6181 45.4804 19.7724 44.7176 19.7724ZM58.0544 3.67167C57.5822 3.67167 57.1917 3.51729 56.883 3.20854C56.5742 2.88162 56.4198 2.49113 56.4198 2.03708C56.4198 1.56486 56.5742 1.17438 56.883 0.865619C57.1917 0.556862 57.5822 0.402484 58.0544 0.402484C58.5266 0.402484 58.9171 0.556862 59.2259 0.865619C59.5346 1.17438 59.689 1.56486 59.689 2.03708C59.689 2.49113 59.5346 2.88162 59.2259 3.20854C58.9171 3.51729 58.5266 3.67167 58.0544 3.67167ZM55.3301 19.5V19.0641L57.0464 18.1923V10.0738L55.4118 8.65719V8.46648L59.0624 6.96811H59.2259V18.1923L60.9422 19.0641V19.5H55.3301ZM63.8157 19.5V19.0641L65.5321 18.1923V10.0738L63.8975 8.65719V8.46648L67.2756 6.96811H67.4391L67.6843 9.28378H67.7932C68.211 8.61178 68.5924 8.11232 68.9375 7.7854C69.3007 7.44032 69.6367 7.22238 69.9455 7.13157C70.2542 7.02259 70.563 6.96811 70.8717 6.96811C71.017 6.96811 71.1805 6.99535 71.3621 7.04984C71.5619 7.10432 71.7253 7.15881 71.8525 7.2133C72.0523 7.30411 72.2339 7.41308 72.3974 7.54021C72.579 7.66735 72.6698 7.81265 72.6698 7.97611C72.6698 8.13957 72.6335 8.30302 72.5608 8.46648L72.0159 9.8014H71.8252L70.79 9.39276C70.5902 9.30194 70.3904 9.24746 70.1906 9.2293C70.009 9.21113 69.8274 9.20205 69.6458 9.20205C68.883 9.20205 68.2382 9.59254 67.7115 10.3735V18.1923L69.6458 19.0641V19.5H63.8157ZM80.2832 19.7724C78.5215 19.7724 77.1321 19.2366 76.115 18.1651C75.0979 17.0935 74.5894 15.6769 74.5894 13.9151C74.5894 12.553 74.8527 11.3543 75.3794 10.319C75.9243 9.26562 76.6326 8.44832 77.5044 7.86713C78.3943 7.26778 79.3569 6.96811 80.3922 6.96811C81.827 6.96811 82.953 7.46757 83.7703 8.46648C84.6058 9.4654 85.0235 10.9002 85.0235 12.7709L84.8873 12.9071H76.7416C76.7597 13.7426 76.9232 14.5326 77.232 15.2773C77.5407 16.0038 78.0311 16.5941 78.7031 17.0481C79.3933 17.5022 80.3104 17.7292 81.4547 17.7292C82.4536 17.7292 83.625 17.3659 84.969 16.6395H85.0508V16.9119C84.633 17.6929 84.0064 18.3649 83.171 18.9279C82.3537 19.4909 81.3911 19.7724 80.2832 19.7724ZM79.9563 8.16681C79.0845 8.16681 78.3671 8.47557 77.8041 9.09308C77.2592 9.69243 76.9232 10.5461 76.7961 11.6539H82.953C82.7533 10.4189 82.3991 9.52897 81.8906 8.98411C81.4002 8.43924 80.7554 8.16681 79.9563 8.16681ZM92.226 19.7724C91.3723 19.7724 90.6368 19.6998 90.0193 19.5545C89.4017 19.4092 88.7751 19.1731 88.1395 18.8462V15.7949H88.5209L89.3927 17.2933C89.9557 18.2922 90.8729 18.7917 92.1442 18.7917C92.8707 18.7917 93.4337 18.6191 93.8333 18.2741C94.251 17.929 94.4599 17.4568 94.4599 16.8574C94.4599 16.3307 94.3328 15.9221 94.0785 15.6315C93.8242 15.3409 93.461 15.0866 92.9888 14.8686C92.5347 14.6325 91.9899 14.3692 91.3542 14.0786C90.4279 13.6609 89.7105 13.2068 89.202 12.7164C88.7116 12.2079 88.4664 11.4996 88.4664 10.5915C88.4664 9.91946 88.6571 9.31103 89.0385 8.76616C89.4199 8.2213 89.9012 7.7854 90.4824 7.45848C91.0817 7.13157 91.6993 6.96811 92.3349 6.96811C93.0069 6.96811 93.6244 7.04984 94.1875 7.2133C94.7505 7.37675 95.3226 7.60378 95.9038 7.89438V10.8639H95.5224L94.6234 9.42C94.3146 8.92962 93.9786 8.57546 93.6154 8.35751C93.2521 8.13957 92.8616 8.03059 92.4439 8.03059C91.8264 8.03059 91.3269 8.18497 90.9455 8.49373C90.5823 8.80248 90.4007 9.2293 90.4007 9.77416C90.4007 10.3917 90.6186 10.8639 91.0545 11.1908C91.5086 11.4996 92.1624 11.8537 93.016 12.2533C93.5246 12.5076 94.0331 12.7618 94.5416 13.0161C95.0683 13.2704 95.4952 13.6336 95.8221 14.1058C96.1672 14.5599 96.3397 15.2137 96.3397 16.0674C96.3397 16.8665 96.1217 17.5476 95.6859 18.1106C95.25 18.6555 94.7142 19.0732 94.0785 19.3638C93.4428 19.6362 92.8253 19.7724 92.226 19.7724Z" fill="white"/>
</svg>
