<svg width="155" height="42" viewBox="0 0 155 42" fill="none" xmlns="http://www.w3.org/2000/svg">
<path d="M11.4166 29.5V29.0641L13.133 28.1923V20.0738L11.4984 18.6572V18.4665L14.8765 16.9681H15.04L15.2852 19.2838H15.3942C15.8119 18.6118 16.1933 18.1123 16.5384 17.7854C16.9016 17.4403 17.2376 17.2224 17.5464 17.1316C17.8551 17.0226 18.1639 16.9681 18.4727 16.9681C18.6179 16.9681 18.7814 16.9953 18.963 17.0498C19.1628 17.1043 19.3263 17.1588 19.4534 17.2133C19.6532 17.3041 19.8348 17.4131 19.9983 17.5402C20.1799 17.6673 20.2707 17.8126 20.2707 17.9761C20.2707 18.1396 20.2344 18.303 20.1617 18.4665L19.6169 19.8014H19.4262L18.3909 19.3928C18.1911 19.3019 17.9914 19.2475 17.7916 19.2293C17.6099 19.2111 17.4283 19.2021 17.2467 19.2021C16.4839 19.2021 15.8391 19.5925 15.3124 20.3735V28.1923L17.2467 29.0641V29.5H11.4166ZM27.8841 29.7724C26.1224 29.7724 24.733 29.2366 23.7159 28.1651C22.6988 27.0935 22.1903 25.6769 22.1903 23.9151C22.1903 22.553 22.4536 21.3543 22.9803 20.319C23.5252 19.2656 24.2335 18.4483 25.1053 17.8671C25.9953 17.2678 26.9579 16.9681 27.9931 16.9681C29.4279 16.9681 30.554 17.4676 31.3713 18.4665C32.2067 19.4654 32.6245 20.9002 32.6245 22.7709L32.4882 22.9071H24.3425C24.3607 23.7426 24.5241 24.5326 24.8329 25.2773C25.1416 26.0038 25.632 26.5941 26.304 27.0481C26.9942 27.5022 27.9114 27.7292 29.0556 27.7292C30.0545 27.7292 31.226 27.3659 32.57 26.6395H32.6517V26.9119C32.234 27.6929 31.6074 28.3649 30.7719 28.9279C29.9546 29.4909 28.992 29.7724 27.8841 29.7724ZM27.5572 18.1668C26.6854 18.1668 25.968 18.4756 25.405 19.0931C24.8601 19.6924 24.5241 20.5461 24.397 21.6539H30.554C30.3542 20.4189 30 19.529 29.4915 18.9841C29.0011 18.4392 28.3563 18.1668 27.5572 18.1668ZM39.8269 29.7724C38.9733 29.7724 38.2377 29.6998 37.6202 29.5545C37.0027 29.4092 36.3761 29.1731 35.7404 28.8462V25.7949H36.1218L36.9936 27.2933C37.5566 28.2922 38.4738 28.7917 39.7452 28.7917C40.4716 28.7917 41.0347 28.6191 41.4342 28.2741C41.852 27.929 42.0608 27.4568 42.0608 26.8574C42.0608 26.3307 41.9337 25.9221 41.6794 25.6315C41.4252 25.3409 41.0619 25.0866 40.5897 24.8686C40.1356 24.6325 39.5908 24.3692 38.9551 24.0786C38.0288 23.6609 37.3114 23.2068 36.8029 22.7164C36.3125 22.2079 36.0673 21.4996 36.0673 20.5915C36.0673 19.9195 36.258 19.311 36.6394 18.7662C37.0208 18.2213 37.5021 17.7854 38.0833 17.4585C38.6827 17.1316 39.3002 16.9681 39.9359 16.9681C40.6079 16.9681 41.2254 17.0498 41.7884 17.2133C42.3514 17.3768 42.9235 17.6038 43.5047 17.8944V20.8639H43.1233L42.2243 19.42C41.9155 18.9296 41.5795 18.5755 41.2163 18.3575C40.853 18.1396 40.4626 18.0306 40.0448 18.0306C39.4273 18.0306 38.9279 18.185 38.5465 18.4937C38.1832 18.8025 38.0016 19.2293 38.0016 19.7742C38.0016 20.3917 38.2195 20.8639 38.6554 21.1908C39.1095 21.4996 39.7633 21.8537 40.6169 22.2533C41.1255 22.5076 41.634 22.7618 42.1426 23.0161C42.6693 23.2704 43.0961 23.6336 43.423 24.1058C43.7681 24.5599 43.9406 25.2137 43.9406 26.0674C43.9406 26.8665 43.7227 27.5476 43.2868 28.1106C42.8509 28.6555 42.3151 29.0732 41.6794 29.3638C41.0438 29.6362 40.4262 29.7724 39.8269 29.7724ZM52.8394 29.7724C51.0776 29.7724 49.6882 29.2366 48.6711 28.1651C47.6541 27.0935 47.1455 25.6769 47.1455 23.9151C47.1455 22.553 47.4089 21.3543 47.9356 20.319C48.4804 19.2656 49.1888 18.4483 50.0606 17.8671C50.9505 17.2678 51.9131 16.9681 52.9483 16.9681C54.3831 16.9681 55.5092 17.4676 56.3265 18.4665C57.162 19.4654 57.5797 20.9002 57.5797 22.7709L57.4435 22.9071H49.2977C49.3159 23.7426 49.4794 24.5326 49.7881 25.2773C50.0969 26.0038 50.5873 26.5941 51.2593 27.0481C51.9494 27.5022 52.8666 27.7292 54.0108 27.7292C55.0097 27.7292 56.1812 27.3659 57.5252 26.6395H57.6069V26.9119C57.1892 27.6929 56.5626 28.3649 55.7271 28.9279C54.9099 29.4909 53.9473 29.7724 52.8394 29.7724ZM52.5124 18.1668C51.6407 18.1668 50.9233 18.4756 50.3602 19.0931C49.8154 19.6924 49.4794 20.5461 49.3522 21.6539H55.5092C55.3094 20.4189 54.9553 19.529 54.4467 18.9841C53.9563 18.4392 53.3116 18.1668 52.5124 18.1668ZM60.396 29.5V29.0641L62.1123 28.1923V20.0738L60.4777 18.6572V18.4665L63.8559 16.9681H64.0193L64.2645 19.2838H64.3735C64.7912 18.6118 65.1726 18.1123 65.5177 17.7854C65.8809 17.4403 66.2169 17.2224 66.5257 17.1316C66.8344 17.0226 67.1432 16.9681 67.452 16.9681C67.5973 16.9681 67.7607 16.9953 67.9423 17.0498C68.1421 17.1043 68.3056 17.1588 68.4327 17.2133C68.6325 17.3041 68.8141 17.4131 68.9776 17.5402C69.1592 17.6673 69.25 17.8126 69.25 17.9761C69.25 18.1396 69.2137 18.303 69.141 18.4665L68.5962 19.8014H68.4055L67.3702 19.3928C67.1704 19.3019 66.9707 19.2475 66.7709 19.2293C66.5893 19.2111 66.4076 19.2021 66.226 19.2021C65.4632 19.2021 64.8184 19.5925 64.2917 20.3735V28.1923L66.226 29.0641V29.5H60.396ZM75.9917 29.5L71.0061 18.521L69.1808 17.6764V17.2405H75.692V17.6764L73.458 18.4937V18.6572L76.9452 26.2581H77.0541L80.1326 18.8206V18.6572L78.1711 17.6764V17.2405H83.5108V17.6764L81.4948 18.6299L76.5638 29.5H75.9917ZM87.1469 29.7724C86.2933 29.7724 85.585 29.5272 85.0219 29.0369C84.4589 28.5283 84.1774 27.8291 84.1774 26.9391C84.1774 26.0492 84.5043 25.2773 85.1582 24.6235C85.8302 23.9696 86.9471 23.4611 88.5091 23.0978L91.0972 22.4985V20.5097C91.0972 19.8922 90.8429 19.3655 90.3344 18.9296C89.844 18.4756 89.281 18.2485 88.6453 18.2485C87.9551 18.2485 87.4738 18.4392 87.2014 18.8206C86.929 19.1839 86.7927 19.6743 86.7927 20.2918V21.0546L86.6565 21.1908H85.2399C84.9675 21.1908 84.7767 21.1454 84.6678 21.0546C84.577 20.9638 84.5316 20.7549 84.5316 20.428C84.5316 20.0284 84.6496 19.6198 84.8857 19.2021C85.1218 18.7843 85.4851 18.4211 85.9755 18.1123C86.484 17.7854 87.0107 17.513 87.5556 17.295C88.1186 17.0771 88.7179 16.9681 89.3536 16.9681C89.9893 16.9681 90.6068 17.0589 91.2062 17.2405C91.8237 17.4222 92.3231 17.7309 92.7045 18.1668C93.0859 18.5845 93.2766 19.1748 93.2766 19.9376V27.6747C93.4038 27.8018 93.5854 27.9108 93.8215 28.0016C94.0576 28.0924 94.3845 28.1378 94.8023 28.1378H95.8375L95.9192 28.1923V28.2741C95.7013 28.6736 95.3744 29.0278 94.9385 29.3365C94.5208 29.6271 94.0031 29.7724 93.3856 29.7724C92.8226 29.7724 92.3595 29.6271 91.9962 29.3365C91.6511 29.0278 91.4059 28.6282 91.2606 28.1378H91.0972C90.625 28.6101 90.0347 29.0005 89.3264 29.3093C88.6362 29.6181 87.9097 29.7724 87.1469 29.7724ZM86.3024 26.3943C86.3024 27.5203 86.9835 28.0834 88.3456 28.0834C88.7815 28.0834 89.2083 28.0379 89.626 27.9471C90.0619 27.8563 90.5523 27.6929 91.0972 27.4568V23.4248C89.6442 23.6972 88.5817 23.9878 87.9097 24.2965C87.2377 24.5871 86.8018 24.905 86.602 25.2501C86.4023 25.5951 86.3024 25.9765 86.3024 26.3943ZM101.893 29.7724C101.093 29.7724 100.403 29.5363 99.822 29.0641C99.2409 28.5919 98.9503 27.929 98.9503 27.0754V18.521H96.7163V18.3575L99.032 17.2405L100.966 14.2438H101.13V17.2405H104.726V18.521H101.13V26.6122C101.13 27.0844 101.339 27.4295 101.756 27.6475C102.174 27.8654 102.664 27.9744 103.227 27.9744C103.573 27.9744 103.89 27.9562 104.181 27.9199C104.49 27.8836 104.753 27.8382 104.971 27.7837H105.053V28.0561C104.871 28.4738 104.508 28.8643 103.963 29.2276C103.436 29.5908 102.746 29.7724 101.893 29.7724ZM110.052 13.6717C109.58 13.6717 109.19 13.5173 108.881 13.2085C108.572 12.8816 108.418 12.4911 108.418 12.0371C108.418 11.5649 108.572 11.1744 108.881 10.8656C109.19 10.5569 109.58 10.4025 110.052 10.4025C110.525 10.4025 110.915 10.5569 111.224 10.8656C111.533 11.1744 111.687 11.5649 111.687 12.0371C111.687 12.4911 111.533 12.8816 111.224 13.2085C110.915 13.5173 110.525 13.6717 110.052 13.6717ZM107.328 29.5V29.0641L109.044 28.1923V20.0738L107.41 18.6572V18.4665L111.06 16.9681H111.224V28.1923L112.94 29.0641V29.5H107.328ZM121.753 29.7724C120.554 29.7724 119.501 29.4909 118.592 28.9279C117.702 28.3649 117.003 27.6021 116.495 26.6395C116.004 25.6769 115.759 24.5871 115.759 23.3703C115.759 22.1534 116.004 21.0637 116.495 20.1011C117.003 19.1385 117.702 18.3757 118.592 17.8126C119.501 17.2496 120.554 16.9681 121.753 16.9681C122.951 16.9681 123.996 17.2496 124.886 17.8126C125.794 18.3757 126.493 19.1385 126.983 20.1011C127.492 21.0637 127.746 22.1534 127.746 23.3703C127.746 24.5871 127.492 25.6769 126.983 26.6395C126.493 27.6021 125.794 28.3649 124.886 28.9279C123.996 29.4909 122.951 29.7724 121.753 29.7724ZM122.134 28.601C122.861 28.601 123.46 28.3739 123.932 27.9199C124.404 27.4658 124.749 26.8846 124.967 26.1763C125.185 25.4498 125.294 24.6961 125.294 23.9151C125.294 22.9525 125.158 22.0263 124.886 21.1363C124.631 20.2464 124.214 19.5199 123.632 18.9569C123.069 18.3938 122.334 18.1123 121.426 18.1123C120.681 18.1123 120.073 18.3393 119.6 18.7934C119.128 19.2475 118.774 19.8286 118.538 20.537C118.32 21.2453 118.211 21.999 118.211 22.7982C118.211 23.7608 118.347 24.687 118.62 25.577C118.892 26.4669 119.319 27.1934 119.9 27.7564C120.481 28.3195 121.226 28.601 122.134 28.601ZM130.417 29.5V29.0641L132.133 28.1923V20.0738L130.499 18.6572V18.4665L133.877 16.9681H134.04L134.286 18.9841H134.422C135.112 18.2939 135.775 17.7854 136.411 17.4585C137.064 17.1316 137.782 16.9681 138.563 16.9681C139.634 16.9681 140.506 17.2405 141.178 17.7854C141.868 18.3121 142.213 19.1022 142.213 20.1556V28.1923L143.93 29.0641V29.5H138.1V29.0641L140.034 28.1923V21.436C140.034 20.6369 139.78 20.0284 139.271 19.6107C138.781 19.193 138.136 18.9841 137.337 18.9841C136.846 18.9841 136.302 19.0658 135.702 19.2293C135.121 19.3928 134.658 19.6289 134.313 19.9376V28.1923L136.247 29.0641V29.5H130.417Z" fill="#222222"/>
</svg>
