<svg width="116" height="42" viewBox="0 0 116 42" fill="none" xmlns="http://www.w3.org/2000/svg">
<path d="M15.8028 29.7724C14.9492 29.7724 14.2136 29.6998 13.5961 29.5545C12.9786 29.4092 12.352 29.1731 11.7163 28.8462V25.7949H12.0977L12.9695 27.2933C13.5325 28.2922 14.4497 28.7917 15.7211 28.7917C16.4476 28.7917 17.0106 28.6191 17.4102 28.2741C17.8279 27.929 18.0368 27.4568 18.0368 26.8574C18.0368 26.3307 17.9096 25.9221 17.6554 25.6315C17.4011 25.3409 17.0378 25.0866 16.5656 24.8686C16.1116 24.6325 15.5667 24.3692 14.931 24.0786C14.0048 23.6609 13.2874 23.2068 12.7788 22.7164C12.2884 22.2079 12.0432 21.4996 12.0432 20.5915C12.0432 19.9195 12.2339 19.311 12.6154 18.7662C12.9968 18.2213 13.4781 17.7854 14.0592 17.4585C14.6586 17.1316 15.2761 16.9681 15.9118 16.9681C16.5838 16.9681 17.2013 17.0498 17.7643 17.2133C18.3274 17.3768 18.8995 17.6038 19.4807 17.8944V20.8639H19.0992L18.2002 19.42C17.8915 18.9296 17.5555 18.5755 17.1922 18.3575C16.829 18.1396 16.4385 18.0306 16.0208 18.0306C15.4032 18.0306 14.9038 18.185 14.5224 18.4937C14.1591 18.8025 13.9775 19.2293 13.9775 19.7742C13.9775 20.3917 14.1955 20.8639 14.6314 21.1908C15.0854 21.4996 15.7392 21.8537 16.5929 22.2533C17.1014 22.5076 17.6099 22.7618 18.1185 23.0161C18.6452 23.2704 19.072 23.6336 19.3989 24.1058C19.744 24.5599 19.9165 25.2137 19.9165 26.0674C19.9165 26.8665 19.6986 27.5476 19.2627 28.1106C18.8268 28.6555 18.291 29.0732 17.6554 29.3638C17.0197 29.6362 16.4022 29.7724 15.8028 29.7724ZM28.8153 29.7724C27.0536 29.7724 25.6642 29.2366 24.6471 28.1651C23.63 27.0935 23.1215 25.6769 23.1215 23.9151C23.1215 22.553 23.3848 21.3543 23.9115 20.319C24.4564 19.2656 25.1647 18.4483 26.0365 17.8671C26.9264 17.2678 27.889 16.9681 28.9243 16.9681C30.3591 16.9681 31.4851 17.4676 32.3024 18.4665C33.1379 19.4654 33.5556 20.9002 33.5556 22.7709L33.4194 22.9071H25.2737C25.2918 23.7426 25.4553 24.5326 25.764 25.2773C26.0728 26.0038 26.5632 26.5941 27.2352 27.0481C27.9253 27.5022 28.8425 27.7292 29.9868 27.7292C30.9857 27.7292 32.1571 27.3659 33.5011 26.6395H33.5829V26.9119C33.1651 27.6929 32.5385 28.3649 31.7031 28.9279C30.8858 29.4909 29.9232 29.7724 28.8153 29.7724ZM28.4884 18.1668C27.6166 18.1668 26.8992 18.4756 26.3362 19.0931C25.7913 19.6924 25.4553 20.5461 25.3282 21.6539H31.4851C31.2853 20.4189 30.9312 19.529 30.4226 18.9841C29.9323 18.4392 29.2875 18.1668 28.4884 18.1668ZM36.3719 29.5V29.0641L38.0882 28.1923V20.0738L36.4536 18.6572V18.4665L39.8318 16.9681H39.9952L40.2404 19.2838H40.3494C40.7671 18.6118 41.1485 18.1123 41.4936 17.7854C41.8569 17.4403 42.1929 17.2224 42.5016 17.1316C42.8104 17.0226 43.1191 16.9681 43.4279 16.9681C43.5732 16.9681 43.7366 16.9953 43.9183 17.0498C44.1181 17.1043 44.2815 17.1588 44.4086 17.2133C44.6084 17.3041 44.7901 17.4131 44.9535 17.5402C45.1351 17.6673 45.2259 17.8126 45.2259 17.9761C45.2259 18.1396 45.1896 18.303 45.117 18.4665L44.5721 19.8014H44.3814L43.3462 19.3928C43.1464 19.3019 42.9466 19.2475 42.7468 19.2293C42.5652 19.2111 42.3836 19.2021 42.2019 19.2021C41.4391 19.2021 40.7944 19.5925 40.2677 20.3735V28.1923L42.2019 29.0641V29.5H36.3719ZM51.9676 29.5L46.9821 18.521L45.1568 17.6764V17.2405H51.6679V17.6764L49.434 18.4937V18.6572L52.9211 26.2581H53.0301L56.1086 18.8206V18.6572L54.147 17.6764V17.2405H59.4867V17.6764L57.4707 18.6299L52.5397 29.5H51.9676ZM63.0684 13.6717C62.5961 13.6717 62.2057 13.5173 61.8969 13.2085C61.5881 12.8816 61.4338 12.4911 61.4338 12.0371C61.4338 11.5649 61.5881 11.1744 61.8969 10.8656C62.2057 10.5569 62.5961 10.4025 63.0684 10.4025C63.5406 10.4025 63.9311 10.5569 64.2398 10.8656C64.5486 11.1744 64.7029 11.5649 64.7029 12.0371C64.7029 12.4911 64.5486 12.8816 64.2398 13.2085C63.9311 13.5173 63.5406 13.6717 63.0684 13.6717ZM60.344 29.5V29.0641L62.0604 28.1923V20.0738L60.4258 18.6572V18.4665L64.0764 16.9681H64.2398V28.1923L65.9561 29.0641V29.5H60.344ZM74.469 29.7724C72.7073 29.7724 71.3179 29.2366 70.3008 28.1651C69.2837 27.0935 68.7752 25.6769 68.7752 23.9151C68.7752 22.553 69.0476 21.3543 69.5925 20.319C70.1555 19.2656 70.9092 18.4483 71.8537 17.8671C72.7981 17.2678 73.8606 16.9681 75.0411 16.9681C75.7676 16.9681 76.4759 17.0952 77.1661 17.3495C77.8563 17.5856 78.383 17.9035 78.7462 18.303C79.0368 18.6481 79.1821 18.9205 79.1821 19.1203C79.1821 19.3746 79.064 19.5925 78.8279 19.7742L77.7927 20.6459H77.602L76.6757 19.3928C76.4033 19.0295 76.0582 18.7389 75.6405 18.521C75.2409 18.2849 74.7414 18.1668 74.1421 18.1668C73.1432 18.1668 72.3531 18.5664 71.7719 19.3655C71.2089 20.1465 70.9274 21.2453 70.9274 22.6619C70.9274 23.5337 71.0727 24.3601 71.3633 25.1411C71.6539 25.9039 72.1352 26.5305 72.8072 27.0209C73.4973 27.4931 74.4418 27.7292 75.6405 27.7292C76.6394 27.7292 77.8109 27.3659 79.1549 26.6395H79.2366V26.9119C78.8189 27.6929 78.1923 28.3649 77.3568 28.9279C76.5395 29.4909 75.5769 29.7724 74.469 29.7724ZM87.5053 29.7724C85.7436 29.7724 84.3542 29.2366 83.3371 28.1651C82.32 27.0935 81.8115 25.6769 81.8115 23.9151C81.8115 22.553 82.0748 21.3543 82.6015 20.319C83.1464 19.2656 83.8547 18.4483 84.7265 17.8671C85.6165 17.2678 86.5791 16.9681 87.6143 16.9681C89.0491 16.9681 90.1752 17.4676 90.9925 18.4665C91.8279 19.4654 92.2457 20.9002 92.2457 22.7709L92.1094 22.9071H83.9637C83.9819 23.7426 84.1453 24.5326 84.4541 25.2773C84.7628 26.0038 85.2532 26.5941 85.9252 27.0481C86.6154 27.5022 87.5326 27.7292 88.6768 27.7292C89.6757 27.7292 90.8472 27.3659 92.1912 26.6395H92.2729V26.9119C91.8552 27.6929 91.2286 28.3649 90.3931 28.9279C89.5758 29.4909 88.6132 29.7724 87.5053 29.7724ZM87.1784 18.1668C86.3066 18.1668 85.5892 18.4756 85.0262 19.0931C84.4813 19.6924 84.1453 20.5461 84.0182 21.6539H90.1752C89.9754 20.4189 89.6212 19.529 89.1127 18.9841C88.6223 18.4392 87.9776 18.1668 87.1784 18.1668ZM99.4481 29.7724C98.5945 29.7724 97.8589 29.6998 97.2414 29.5545C96.6239 29.4092 95.9973 29.1731 95.3616 28.8462V25.7949H95.743L96.6148 27.2933C97.1778 28.2922 98.095 28.7917 99.3664 28.7917C100.093 28.7917 100.656 28.6191 101.055 28.2741C101.473 27.929 101.682 27.4568 101.682 26.8574C101.682 26.3307 101.555 25.9221 101.301 25.6315C101.046 25.3409 100.683 25.0866 100.211 24.8686C99.7568 24.6325 99.212 24.3692 98.5763 24.0786C97.65 23.6609 96.9326 23.2068 96.4241 22.7164C95.9337 22.2079 95.6885 21.4996 95.6885 20.5915C95.6885 19.9195 95.8792 19.311 96.2606 18.7662C96.642 18.2213 97.1233 17.7854 97.7045 17.4585C98.3039 17.1316 98.9214 16.9681 99.5571 16.9681C100.229 16.9681 100.847 17.0498 101.41 17.2133C101.973 17.3768 102.545 17.6038 103.126 17.8944V20.8639H102.745L101.845 19.42C101.537 18.9296 101.201 18.5755 100.837 18.3575C100.474 18.1396 100.084 18.0306 99.666 18.0306C99.0485 18.0306 98.5491 18.185 98.1677 18.4937C97.8044 18.8025 97.6228 19.2293 97.6228 19.7742C97.6228 20.3917 97.8407 20.8639 98.2766 21.1908C98.7307 21.4996 99.3845 21.8537 100.238 22.2533C100.747 22.5076 101.255 22.7618 101.764 23.0161C102.29 23.2704 102.717 23.6336 103.044 24.1058C103.389 24.5599 103.562 25.2137 103.562 26.0674C103.562 26.8665 103.344 27.5476 102.908 28.1106C102.472 28.6555 101.936 29.0732 101.301 29.3638C100.665 29.6362 100.047 29.7724 99.4481 29.7724Z" fill="white"/>
</svg>
