<svg width="74" height="42" viewBox="0 0 74 42" fill="none" xmlns="http://www.w3.org/2000/svg">
<path d="M5.80281 29.2724C4.94919 29.2724 4.21362 29.1998 3.59611 29.0545C2.97859 28.9092 2.352 28.6731 1.71632 28.3462V25.2949H2.09773L2.96951 26.7933C3.53254 27.7922 4.44973 28.2917 5.72108 28.2917C6.44757 28.2917 7.0106 28.1191 7.41016 27.7741C7.82789 27.429 8.03676 26.9568 8.03676 26.3574C8.03676 25.8307 7.90962 25.4221 7.65535 25.1315C7.40108 24.8409 7.03784 24.5866 6.56562 24.3686C6.11157 24.1325 5.5667 23.8692 4.93103 23.5786C4.00476 23.1609 3.28735 22.7068 2.77881 22.2164C2.28843 21.7079 2.04324 20.9996 2.04324 20.0915C2.04324 19.4195 2.23395 18.811 2.61535 18.2662C2.99676 17.7213 3.47805 17.2854 4.05924 16.9585C4.6586 16.6316 5.27611 16.4681 5.91178 16.4681C6.58378 16.4681 7.2013 16.5498 7.76433 16.7133C8.32735 16.8768 8.89946 17.1038 9.48065 17.3944V20.3639H9.09924L8.20022 18.92C7.89146 18.4296 7.55546 18.0755 7.19222 17.8575C6.82897 17.6396 6.43849 17.5306 6.02076 17.5306C5.40324 17.5306 4.90378 17.685 4.52238 17.9937C4.15914 18.3025 3.97751 18.7293 3.97751 19.2742C3.97751 19.8917 4.19546 20.3639 4.63135 20.6908C5.08541 20.9996 5.73924 21.3537 6.59287 21.7533C7.10141 22.0076 7.60995 22.2618 8.11849 22.5161C8.64519 22.7704 9.072 23.1336 9.39892 23.6058C9.744 24.0599 9.91654 24.7137 9.91654 25.5674C9.91654 26.3665 9.6986 27.0476 9.2627 27.6106C8.82681 28.1555 8.29103 28.5732 7.65535 28.8638C7.01968 29.1362 6.40216 29.2724 5.80281 29.2724ZM17.1598 29.2724C16.3607 29.2724 15.6705 29.0363 15.0894 28.5641C14.5082 28.0919 14.2176 27.429 14.2176 26.5754V18.021H11.9836V17.8575L14.2993 16.7405L16.2336 13.7438H16.397V16.7405H19.9931V18.021H16.397V26.1122C16.397 26.5844 16.6059 26.9295 17.0236 27.1475C17.4414 27.3654 17.9317 27.4744 18.4948 27.4744C18.8398 27.4744 19.1577 27.4562 19.4483 27.4199C19.757 27.3836 20.0204 27.3382 20.2383 27.2837H20.3201V27.5561C20.1384 27.9738 19.7752 28.3643 19.2303 28.7276C18.7036 29.0908 18.0135 29.2724 17.1598 29.2724ZM27.2539 29.2724C26.1823 29.2724 25.3015 29.0091 24.6113 28.4824C23.9393 27.9375 23.6033 27.1384 23.6033 26.085V18.021L21.887 17.1764V16.7405H25.7828V24.8045C25.7828 25.6037 26.0279 26.2121 26.5183 26.6298C27.0269 27.0476 27.6807 27.2564 28.4798 27.2564C28.9702 27.2564 29.506 27.1747 30.0872 27.0112C30.6865 26.8478 31.1588 26.6117 31.5038 26.3029V18.021L29.5696 17.1764V16.7405H33.6833V27.7741L35.6176 28.5641V29H31.5038V27.2837H31.3676C30.6775 27.9738 30.0055 28.4824 29.3516 28.8093C28.7159 29.1181 28.0167 29.2724 27.2539 29.2724ZM42.3343 29.2724C41.4262 29.2724 40.6089 29.0454 39.8824 28.5914C39.1741 28.1373 38.6111 27.5016 38.1933 26.6843C37.7938 25.8489 37.594 24.859 37.594 23.7148C37.594 22.171 37.8936 20.8633 38.493 19.7918C39.0924 18.7021 39.8915 17.8757 40.8904 17.3126C41.8893 16.7496 42.9791 16.4681 44.1596 16.4681C44.6681 16.4681 45.1131 16.4953 45.4945 16.5498C45.8759 16.5862 46.221 16.6406 46.5298 16.7133V11.6733L44.7589 10.2566V10.0659L48.5458 8.56756H48.7092V27.7741L50.6435 28.5641V29H46.8022L46.5842 27.6106H46.3935C45.7034 28.1918 45.0314 28.6186 44.3775 28.891C43.7419 29.1453 43.0608 29.2724 42.3343 29.2724ZM39.7734 23.0882C39.7734 24.5957 40.173 25.6945 40.9721 26.3846C41.7713 27.0566 42.7248 27.3926 43.8327 27.3926C44.2686 27.3926 44.7135 27.3291 45.1676 27.2019C45.6398 27.0566 46.0939 26.8478 46.5298 26.5754V18.9472C46.0939 18.5658 45.658 18.2843 45.2221 18.1027C44.8044 17.9029 44.3321 17.803 43.8054 17.803C43.0789 17.803 42.4069 17.9846 41.7894 18.3479C41.1901 18.693 40.6997 19.256 40.3183 20.037C39.9551 20.7998 39.7734 21.8169 39.7734 23.0882ZM55.8086 13.1717C55.3364 13.1717 54.9459 13.0173 54.6372 12.7085C54.3284 12.3816 54.174 11.9911 54.174 11.5371C54.174 11.0649 54.3284 10.6744 54.6372 10.3656C54.9459 10.0569 55.3364 9.90248 55.8086 9.90248C56.2809 9.90248 56.6713 10.0569 56.9801 10.3656C57.2889 10.6744 57.4432 11.0649 57.4432 11.5371C57.4432 11.9911 57.2889 12.3816 56.9801 12.7085C56.6713 13.0173 56.2809 13.1717 55.8086 13.1717ZM53.0843 29V28.5641L54.8006 27.6923V19.5738L53.166 18.1572V17.9665L56.8166 16.4681H56.9801V27.6923L58.6964 28.5641V29H53.0843ZM67.509 29.2724C66.3103 29.2724 65.2569 28.9909 64.3488 28.4279C63.4588 27.8649 62.7596 27.1021 62.251 26.1395C61.7606 25.1769 61.5155 24.0871 61.5155 22.8703C61.5155 21.6534 61.7606 20.5637 62.251 19.6011C62.7596 18.6385 63.4588 17.8757 64.3488 17.3126C65.2569 16.7496 66.3103 16.4681 67.509 16.4681C68.7077 16.4681 69.752 16.7496 70.6419 17.3126C71.5501 17.8757 72.2493 18.6385 72.7397 19.6011C73.2482 20.5637 73.5025 21.6534 73.5025 22.8703C73.5025 24.0871 73.2482 25.1769 72.7397 26.1395C72.2493 27.1021 71.5501 27.8649 70.6419 28.4279C69.752 28.9909 68.7077 29.2724 67.509 29.2724ZM67.8904 28.101C68.6169 28.101 69.2162 27.8739 69.6884 27.4199C70.1607 26.9658 70.5057 26.3846 70.7237 25.6763C70.9416 24.9498 71.0506 24.1961 71.0506 23.4151C71.0506 22.4525 70.9144 21.5263 70.6419 20.6363C70.3877 19.7464 69.9699 19.0199 69.3888 18.4569C68.8257 17.8938 68.0902 17.6123 67.1821 17.6123C66.4374 17.6123 65.829 17.8393 65.3568 18.2934C64.8845 18.7475 64.5304 19.3286 64.2943 20.037C64.0763 20.7453 63.9674 21.499 63.9674 22.2982C63.9674 23.2608 64.1036 24.187 64.376 25.077C64.6484 25.9669 65.0752 26.6934 65.6564 27.2564C66.2376 27.8195 66.9823 28.101 67.8904 28.101Z" fill="white"/>
</svg>
